<svg xmlns="http://www.w3.org/2000/svg" viewBox="10 0 80 80">
	<defs>
		<style><![CDATA[
				@keyframes spin {
					from {
						transform: rotate(0deg);
					}
					to {
						transform: rotate(360deg);
					}
				}
				.vinyl {
					fill: #111;
				}
				.label {
					fill: rgba(0, 216, 255, 1);
				}
				.reflection {
					fill: #fff;
					transform-origin: center;
					stroke: rgba(255,255,255,.3);
					stroke-width: 1px;
					animation: spin 60s infinite linear;
				}
				.react {
					fill-opacity: 0;
					stroke-width: .88;
					stroke-miterlimit: 10;
					stroke: #fff;
					transform-origin: center center;
					animation: spin 60s infinite linear;
				}
				.react path
			]]></style>
		</defs>
		<path d="M50 52c-6.627 0-12-5.373-12-12s5.373-12 12-12 12 5.373 12 12-5.373 12-12 12zm0-14.2c-1.215 0-2.2.985-2.2 2.2 0 1.215.985 2.2 2.2 2.2 1.215 0 2.2-.985 2.2-2.2 0-1.215-.985-2.2-2.2-2.2z" class="label"/>
		<path d="M50 0C27.91 0 10 17.91 10 40c0 22.092 17.91 40 40 40 22.092 0 40-17.908 40-40C90 17.91 72.092 0 50 0zm0 52c-6.627 0-12-5.373-12-12s5.373-12 12-12 12 5.373 12 12-5.373 12-12 12z" class="vinyl"/>
		<path d="M22.227 30.107l-3.137-.628c.046-.24 1.207-5.74 7.697-12.23S38.78 9.6 39.012 9.55l.314 1.57.323 1.566c-.05.01-4.86 1.08-10.6 6.824-5.82 5.814-6.82 10.544-6.83 10.59zM32.5 31.35l-3.134-.644c.067-.338.766-3.41 4.398-7.04 3.632-3.632 6.702-4.33 7.04-4.397l.313 1.56.33 1.56c-.024.006-2.47.574-5.42 3.526-2.952 2.95-3.52 5.395-3.526 5.42zM59 57.827c.01-.002 2.453-.57 5.406-3.52 2.97-2.97 3.518-5.383 3.52-5.406l3.14.63c-.068.34-.767 3.41-4.398 7.04-3.63 3.63-6.702 4.33-7.04 4.4L59 57.83zm14.08 5.72c-6.49 6.488-11.994 7.65-12.226 7.695l-.628-3.138c.04-.01 4.846-1.078 10.59-6.82 5.812-5.814 6.814-10.545 6.822-10.592l3.14.63c-.048.23-1.208 5.732-7.7 12.224z" class="reflection"/>
		<g class="react">
			<path d="M50.036 36.218c2.47 0 4.765.354 6.496.95 2.084.718 3.366 1.806 3.366 2.79 0 1.027-1.358 2.183-3.597 2.925-1.69.56-3.92.853-6.26.853-2.4 0-4.68-.274-6.39-.86-2.16-.74-3.47-1.91-3.47-2.917 0-.98 1.23-2.06 3.28-2.78 1.74-.61 4.09-.97 6.58-.97z"/>
			<path d="M46.78 38.1c1.233-2.14 2.687-3.952 4.067-5.153 1.664-1.448 3.247-2.015 4.1-1.523.89.513 1.212 2.268.736 4.578-.36 1.746-1.22 3.822-2.39 5.853-1.202 2.083-2.577 3.918-3.94 5.108-1.722 1.506-3.388 2.05-4.26 1.548-.846-.48-1.17-2.08-.764-4.22.34-1.8 1.2-4.02 2.45-6.18z"/>
			<path d="M46.782 41.86c-1.237-2.137-2.08-4.3-2.432-6.097-.423-2.164-.124-3.818.73-4.312.887-.51 2.568.09 4.332 1.65 1.333 1.19 2.702 2.97 3.877 5 1.2 2.08 2.1 4.19 2.45 5.97.44 2.245.08 3.96-.79 4.465-.847.49-2.395-.03-4.045-1.45-1.394-1.2-2.886-3.053-4.136-5.21z"/>
		</g>
</svg>
